<svg xmlns="http://www.w3.org/2000/svg" width="40" height="40" viewBox="0 0 40 40" fill="none"><g clip-path="url(#clip0_2408_1744)"><path fill-rule="evenodd" clip-rule="evenodd" d="M13.7146 0.50354C11.4582 0.50354 9.2943 1.37802 7.69881 2.93459L0 10.4456V13.8836C0 16.3126 1.06944 18.4979 2.77401 20.0157C1.06944 21.5336 0 23.7188 0 26.1478V29.5859L7.69881 37.0969C9.2943 38.6535 11.4582 39.5279 13.7146 39.5279C16.2043 39.5279 18.4442 38.4846 20 36.8216C21.5558 38.4846 23.7957 39.5279 26.2854 39.5279C28.5418 39.5279 30.7057 38.6535 32.3012 37.0969L40 29.5859V26.1478C40 23.7188 38.9306 21.5336 37.226 20.0157C38.9306 18.4979 40 16.3126 40 13.8836V10.4456L32.3012 2.93459C30.7057 1.37802 28.5418 0.50354 26.2854 0.50354C23.7957 0.50354 21.5558 1.54689 20 3.20989C18.4442 1.54689 16.2043 0.50354 13.7146 0.50354ZM25.7588 20.0157C25.6629 19.9304 25.5688 19.8426 25.4766 19.7527L20 14.4097L14.5234 19.7527C14.4312 19.8426 14.3371 19.9304 14.2412 20.0157C14.3371 20.1011 14.4312 20.1888 14.5234 20.2787L20 25.6218L25.4766 20.2787C25.5688 20.1888 25.6629 20.1011 25.7588 20.0157ZM22.2222 29.5859V31.2278C22.2222 33.4171 24.0414 35.1919 26.2854 35.1919C27.363 35.1919 28.3965 34.7743 29.1585 34.0308L35.5556 27.7898V26.1478C35.5556 23.9586 33.7364 22.1837 31.4924 22.1837C30.4148 22.1837 29.3813 22.6014 28.6193 23.3448L22.2222 29.5859ZM17.7778 29.5859L11.3807 23.3448C10.6187 22.6014 9.58524 22.1837 8.50762 22.1837C6.26359 22.1837 4.44444 23.9586 4.44444 26.1478V27.7898L10.8415 34.0308C11.6035 34.7743 12.637 35.1919 13.7146 35.1919C15.9586 35.1919 17.7778 33.4171 17.7778 31.2278V29.5859ZM17.7778 8.80365V10.4456L11.3807 16.6866C10.6187 17.4301 9.58524 17.8477 8.50762 17.8477C6.26359 17.8477 4.44444 16.0729 4.44444 13.8836V12.2417L10.8415 6.00063C11.6035 5.25723 12.637 4.83959 13.7146 4.83959C15.9586 4.83959 17.7778 6.61436 17.7778 8.80365ZM28.6193 16.6866L22.2222 10.4456V8.80365C22.2222 6.61436 24.0414 4.83959 26.2854 4.83959C27.363 4.83959 28.3965 5.25723 29.1585 6.00063L35.5556 12.2417V13.8836C35.5556 16.0729 33.7364 17.8477 31.4924 17.8477C30.4148 17.8477 29.3813 17.4301 28.6193 16.6866Z" fill="white"></path></g><defs><clipPath id="clip0_2408_1744"><rect width="40" height="40" fill="white"></rect></clipPath></defs></svg>