<svg xmlns="http://www.w3.org/2000/svg" width="84" height="32" viewBox="0 0 84 32" fill="none"><g clip-path="url(#clip0_2408_1753)"><path d="M19.9389 0C16.6585 0 13.5125 1.29072 11.1929 3.58822L3.62273 11.0863C1.30313 13.3838 0 16.4998 0 19.749C0 26.5151 5.53769 32 12.3688 32C15.6492 32 18.7952 30.7092 21.1148 28.4117L26.3511 23.2253C26.3511 23.2252 26.3512 23.2254 26.3511 23.2253L41.608 8.11371C42.7158 7.01644 44.2184 6.4 45.7851 6.4C48.408 6.4 50.6317 8.09324 51.4027 10.4363L56.2178 5.66716C54.0212 2.25956 50.1695 0 45.7851 0C42.5046 0 39.3586 1.29072 37.039 3.58822L16.5458 23.8863C15.438 24.9836 13.9355 25.6 12.3688 25.6C9.10629 25.6 6.46154 22.9805 6.46154 19.749C6.46154 18.1972 7.0839 16.709 8.19172 15.6117L15.7618 8.11371C16.8697 7.01644 18.3722 6.4 19.9389 6.4C22.562 6.4 24.7856 8.09331 25.5566 10.4365L30.3717 5.66727C28.1751 2.25963 24.3235 0 19.9389 0Z" fill="white"></path><path d="M42.3915 23.8863C41.2837 24.9836 39.7812 25.6 38.2145 25.6C35.5919 25.6 33.3683 23.9072 32.5971 21.5645L27.7822 26.3335C29.9789 29.7407 33.8303 32 38.2145 32C41.4949 32 44.6409 30.7092 46.9605 28.4117L67.4537 8.11371C68.5615 7.01644 70.0641 6.4 71.6308 6.4C74.8933 6.4 77.538 9.01956 77.538 12.251C77.538 13.8028 76.9157 15.291 75.8078 16.3883L68.2377 23.8863C67.1299 24.9836 65.6273 25.6 64.0606 25.6C61.4378 25.6 59.2142 23.9069 58.4431 21.5639L53.6282 26.3331C55.8248 29.7406 59.6763 32 64.0606 32C67.341 32 70.4871 30.7092 72.8066 28.4117L80.3768 20.9137C82.6964 18.6162 83.9995 15.5002 83.9995 12.251C83.9995 5.48495 78.4619 0 71.6308 0C68.3503 0 65.2043 1.29072 62.8847 3.58822L42.3915 23.8863Z" fill="white"></path></g><defs><clipPath id="clip0_2408_1753"><rect width="84" height="32" fill="white"></rect></clipPath></defs></svg>