<svg xmlns="http://www.w3.org/2000/svg" width="40" height="40" viewBox="0 0 40 40" fill="none"><path d="M29.9605 17.7838C29.4378 18.3097 29.0375 18.9445 28.7881 19.6427C28.5387 20.341 28.4465 21.0857 28.5178 21.8238L28.493 21.799C28.5663 22.6678 28.4491 23.542 28.1496 24.3609C27.8502 25.1797 27.3757 25.9233 26.7593 26.5398C26.1427 27.1562 25.3992 27.6308 24.5803 27.9302C23.7615 28.2296 22.8872 28.3468 22.0185 28.2735L22.0433 28.2983C21.0041 28.2016 19.9604 28.4277 19.0543 28.9459C18.1484 29.4641 17.4243 30.249 16.9808 31.1939C16.5374 32.1387 16.396 33.1972 16.5761 34.2253C16.7564 35.2533 17.2492 36.2008 17.9876 36.9384C18.7259 37.6761 19.6738 38.1681 20.7019 38.3473C21.7302 38.5266 22.7885 38.3842 23.733 37.9399C24.6774 37.4955 25.4616 36.7708 25.979 35.8644C26.4964 34.9579 26.7216 33.914 26.624 32.8748L26.6502 32.8997C26.5768 32.031 26.6939 31.1566 26.9934 30.3377C27.2928 29.519 27.7674 28.7754 28.3839 28.1588C29.0004 27.5424 29.744 27.0678 30.5627 26.7685C31.3816 26.469 32.2559 26.3518 33.1247 26.4252L33.0985 26.4004C33.9473 26.4766 34.8018 26.3375 35.5826 25.9957C36.3633 25.6539 37.0452 25.1205 37.565 24.445C38.0847 23.7696 38.4256 22.9737 38.5559 22.1315C38.6862 21.2892 38.6018 20.4277 38.3105 19.6266C38.0192 18.8256 37.5303 18.1111 36.8894 17.5493C36.2484 16.9875 35.476 16.5966 34.6437 16.4129C33.8114 16.2292 32.9462 16.2584 32.1283 16.498C31.3103 16.7377 30.5662 17.1799 29.9647 17.7838H29.9605Z" fill="white"></path><path d="M19.7848 25.0458L19.7586 25.021C20.497 25.0954 21.2426 25.0047 21.9418 24.7556C22.6408 24.5065 23.2759 24.1053 23.8008 23.5807C24.3257 23.0562 24.7276 22.4214 24.9771 21.7225C25.2268 21.0236 25.3179 20.2781 25.2442 19.5396L25.2704 19.5645C25.197 18.6956 25.3142 17.8214 25.6135 17.0025C25.913 16.1838 26.3876 15.4402 27.004 14.8236C27.6206 14.2072 28.3642 13.7326 29.1829 13.4333C30.0018 13.1338 30.876 13.0166 31.7448 13.09L31.7186 13.0651C32.7579 13.1628 33.8019 12.9374 34.7084 12.4198C35.6151 11.9022 36.3397 11.1175 36.7839 10.1729C37.228 9.22824 37.3699 8.16957 37.1904 7.14128C37.0108 6.11299 36.5184 5.16516 35.7802 4.42704C35.0421 3.68893 34.0942 3.19646 33.0659 3.01684C32.0377 2.83722 30.979 2.97916 30.0344 3.42333C29.0897 3.86748 28.3051 4.59224 27.7875 5.49873C27.2698 6.40522 27.0444 7.44931 27.1421 8.4886L27.1173 8.46239C27.1908 9.3312 27.0738 10.2056 26.7745 11.0245C26.4752 11.8434 26.0006 12.5872 25.3842 13.2038C24.7676 13.8202 24.0239 14.2948 23.205 14.5941C22.3859 14.8934 21.5116 15.0104 20.6428 14.9369L20.6676 14.9631C19.9293 14.8887 19.1835 14.9794 18.4844 15.2285C17.7854 15.4774 17.1504 15.8788 16.6254 16.4034C16.1004 16.9279 15.6986 17.5627 15.449 18.2616C15.1995 18.9605 15.1083 19.706 15.1821 20.4445L15.1573 20.4196C15.2304 21.2883 15.113 22.1625 14.8135 22.9813C14.5139 23.7999 14.0395 24.5435 13.423 25.1599C12.8066 25.7763 12.0631 26.2508 11.2444 26.5504C10.4257 26.8498 9.55148 26.9672 8.68277 26.8941L8.7076 26.9189C7.66832 26.8213 6.62422 27.0467 5.71772 27.5643C4.81124 28.082 4.08648 28.8665 3.64233 29.8112C3.19817 30.7559 3.05621 31.8145 3.23583 32.8428C3.41546 33.8711 3.90793 34.8189 4.64604 35.557C5.38417 36.2952 6.332 36.7876 7.36029 36.9672C8.38858 37.1468 9.44724 37.0049 10.3919 36.5607C11.3365 36.1166 12.1212 35.3919 12.6388 34.4854C13.1564 33.5788 13.3818 32.5348 13.2842 31.4955L13.3104 31.5203C13.237 30.6515 13.3542 29.7773 13.6537 28.9584C13.953 28.1396 14.4276 27.396 15.044 26.7795C15.6606 26.1631 16.4042 25.6885 17.2229 25.3891C18.0418 25.0897 18.916 24.9725 19.7848 25.0458Z" fill="white"></path><path d="M10.5407 22.2774C11.0635 21.7516 11.4638 21.1169 11.7129 20.4185C11.9621 19.7202 12.054 18.9754 11.9821 18.2374L12.0083 18.2623C11.9349 17.3933 12.0521 16.5187 12.3517 15.6996C12.6513 14.8806 13.1261 14.1369 13.7429 13.5203C14.3598 12.9038 15.1036 12.4293 15.9228 12.1301C16.742 11.8308 17.6166 11.714 18.4855 11.7878L18.4593 11.7629C19.4982 11.8603 20.542 11.6348 21.448 11.1172C22.3541 10.5996 23.0784 9.81519 23.5224 8.87084C23.9662 7.92649 24.108 6.86821 23.9284 5.84031C23.7489 4.8124 23.2564 3.86493 22.5187 3.12708C21.7809 2.38923 20.8333 1.89693 19.8054 1.71731C18.7775 1.53768 17.7192 1.67951 16.7749 2.1234C15.8305 2.56729 15.0461 3.29166 14.5286 4.19773C14.0109 5.1038 13.7854 6.14747 13.8828 7.18639L13.858 7.16156C13.9313 8.03032 13.8141 8.90462 13.5146 9.72344C13.2152 10.5423 12.7407 11.2859 12.1242 11.9023C11.5078 12.5188 10.7642 12.9934 9.94534 13.2927C9.12652 13.5922 8.25223 13.7094 7.38347 13.636L7.4083 13.6609C6.55943 13.5847 5.70507 13.7242 4.92441 14.0661C4.14375 14.408 3.46203 14.9416 2.94243 15.6171C2.42283 16.2926 2.08216 17.0885 1.95198 17.9307C1.82182 18.773 1.90636 19.6345 2.19776 20.4354C2.48917 21.2363 2.97804 21.9507 3.61905 22.5123C4.26005 23.0741 5.03247 23.4649 5.86472 23.6486C6.69695 23.8322 7.5621 23.8028 8.37998 23.5632C9.19786 23.3235 9.942 22.8813 10.5435 22.2774H10.5407Z" fill="white"></path></svg>