<svg xmlns="http://www.w3.org/2000/svg" width="74" height="36" viewBox="0 0 74 36" fill="none"><g clip-path="url(#clip0_2408_1760)"><path d="M0.0166016 21.1501H2.22628V32.0448H0.0166016V21.1501Z" fill="white"></path><path d="M3.50799 28.3121C3.50653 27.5296 3.73597 26.7642 4.16727 26.1128C4.59857 25.4615 5.21234 24.9534 5.93093 24.6529C6.64946 24.3524 7.44054 24.2731 8.204 24.4248C8.96747 24.5766 9.669 24.9527 10.2198 25.5055C10.7706 26.0583 11.1459 26.763 11.2983 27.5304C11.4507 28.2978 11.3732 29.0934 11.0757 29.8165C10.7782 30.5396 10.2741 31.1577 9.62711 31.5926C8.98018 32.0276 8.21945 32.2596 7.44124 32.2596C6.92363 32.2656 6.41016 32.1676 5.93077 31.9714C5.4514 31.7753 5.01578 31.4848 4.64946 31.1171C4.28314 30.7495 3.99348 30.312 3.79748 29.8303C3.60147 29.3487 3.50305 28.8325 3.50799 28.3121ZM9.14999 28.3121C9.14133 27.9743 9.03377 27.6466 8.8408 27.3699C8.64782 27.0932 8.37802 26.88 8.06508 26.7567C7.75215 26.6334 7.41004 26.6057 7.08158 26.6769C6.75305 26.7481 6.45275 26.9152 6.21812 27.1571C5.98358 27.3991 5.82516 27.7053 5.76271 28.0374C5.70027 28.3694 5.73661 28.7126 5.86712 29.024C5.99769 29.3353 6.21664 29.6011 6.49658 29.788C6.7766 29.9749 7.10514 30.0747 7.44124 30.0748C7.67111 30.0813 7.89988 30.0398 8.11306 29.9529C8.32623 29.866 8.5192 29.7357 8.6798 29.57C8.84033 29.4044 8.96505 29.2071 9.04594 28.9906C9.1269 28.7741 9.16231 28.5431 9.14999 28.3121Z" fill="white"></path><path d="M20.257 24.5793V31.6745C20.257 34.1852 18.3051 35.2444 16.3311 35.2444C15.637 35.2963 14.942 35.1551 14.3223 34.8364C13.7026 34.5176 13.1821 34.0336 12.8178 33.4372L14.7181 32.3337C14.8689 32.6393 15.1075 32.8924 15.4029 33.0601C15.6984 33.2278 16.0372 33.3024 16.3754 33.2743C16.5978 33.3116 16.8259 33.297 17.042 33.2316C17.258 33.1663 17.4562 33.0519 17.6213 32.8973C17.7864 32.7427 17.914 32.5521 17.9943 32.3401C18.0745 32.1281 18.1053 31.9004 18.0841 31.6745V30.9857C17.8244 31.3071 17.4929 31.5624 17.1167 31.731C16.7405 31.8995 16.3301 31.9766 15.9187 31.956C14.9185 31.956 13.9593 31.5565 13.252 30.8453C12.5448 30.1342 12.1475 29.1696 12.1475 28.1639C12.1475 27.1582 12.5448 26.1937 13.252 25.4826C13.9593 24.7714 14.9185 24.3719 15.9187 24.3719C16.3298 24.353 16.7396 24.4309 17.1156 24.5993C17.4916 24.7678 17.8232 25.0221 18.0841 25.3421V24.6015L20.257 24.5793ZM18.0841 28.1639C18.0989 27.8038 18.006 27.4474 17.8177 27.1405C17.6294 26.8338 17.3541 26.5907 17.0273 26.4425C16.7005 26.2943 16.337 26.2478 15.9837 26.3089C15.6303 26.37 15.3033 26.5361 15.0445 26.7856C14.7857 27.0351 14.6071 27.3568 14.5316 27.7092C14.456 28.0616 14.4871 28.4287 14.6207 28.7632C14.7543 29.0978 14.9843 29.3845 15.2813 29.5865C15.5782 29.7886 15.9284 29.8967 16.2869 29.897C16.521 29.9136 16.7559 29.8809 16.9764 29.8006C17.1971 29.7204 17.3986 29.5947 17.5679 29.4314C17.7372 29.2681 17.8706 29.0709 17.9596 28.8526C18.0485 28.6343 18.0909 28.3998 18.0841 28.1639Z" fill="white"></path><path d="M21.5314 28.3121C21.5299 27.5296 21.7594 26.7642 22.1907 26.1128C22.622 25.4615 23.2358 24.9534 23.9543 24.6529C24.6729 24.3524 25.464 24.2731 26.2274 24.4248C26.9909 24.5766 27.6924 24.9527 28.2433 25.5055C28.794 26.0583 29.1693 26.763 29.3218 27.5304C29.4741 28.2978 29.3966 29.0934 29.0991 29.8165C28.8017 30.5396 28.2975 31.1577 27.6506 31.5926C27.0036 32.0276 26.2429 32.2596 25.4647 32.2596C24.9471 32.2656 24.4336 32.1676 23.9542 31.9714C23.4748 31.7753 23.0392 31.4848 22.6729 31.1171C22.3066 30.7495 22.0169 30.312 21.8209 29.8303C21.6249 29.3487 21.5264 28.8325 21.5314 28.3121ZM27.1735 28.3121C27.1647 27.9743 27.0572 27.6466 26.8642 27.3699C26.6712 27.0932 26.4014 26.88 26.0885 26.7567C25.7756 26.6334 25.4335 26.6057 25.105 26.6769C24.7765 26.7481 24.4762 26.9152 24.2415 27.1571C24.007 27.3991 23.8486 27.7053 23.7861 28.0374C23.7237 28.3694 23.76 28.7126 23.8905 29.024C24.0211 29.3353 24.2401 29.6011 24.52 29.788C24.8 29.9749 25.1286 30.0747 25.4647 30.0748C25.6934 30.0792 25.9205 30.0362 26.1319 29.9484C26.3433 29.8605 26.5345 29.7298 26.6935 29.5644C26.8524 29.3991 26.9758 29.2025 27.0559 28.987C27.1359 28.7716 27.1709 28.5418 27.1587 28.3121H27.1735Z" fill="white"></path><path d="M30.4219 22.5796C30.4219 22.313 30.5005 22.0524 30.6478 21.8308C30.7951 21.6091 31.0045 21.4363 31.2494 21.3343C31.4944 21.2323 31.7639 21.2056 32.0239 21.2576C32.284 21.3096 32.5228 21.438 32.7103 21.6265C32.8978 21.815 33.0254 22.0552 33.0771 22.3166C33.1289 22.5781 33.1023 22.8492 33.0009 23.0955C32.8995 23.3417 32.7276 23.5523 32.5072 23.7004C32.2867 23.8485 32.0276 23.9275 31.7624 23.9275C31.4075 23.9257 31.0676 23.783 30.8166 23.5306C30.5656 23.2783 30.4238 22.9366 30.4219 22.5796ZM30.6502 24.5793H32.8598V32.0449H30.6502V24.5793Z" fill="white"></path><path d="M42.4934 28.3121C42.5202 28.8055 42.4497 29.2995 42.2859 29.7655C42.122 30.2314 41.8682 30.6602 41.5388 31.0271C41.2095 31.394 40.8113 31.6918 40.3671 31.9034C39.9229 32.1149 39.4415 32.236 38.9506 32.2597C38.5384 32.2795 38.1269 32.2083 37.7452 32.0509C37.3634 31.8935 37.0205 31.6538 36.7409 31.3487V35.0518H34.5312V24.5793H36.7409V25.2829C37.0205 24.9778 37.3634 24.7381 37.7452 24.5807C38.1269 24.4233 38.5384 24.3521 38.9506 24.3719C39.4409 24.3956 39.9217 24.5165 40.3653 24.7275C40.8091 24.9386 41.207 25.2357 41.5361 25.6019C41.8654 25.968 42.1193 26.3958 42.2836 26.8609C42.4479 27.326 42.5192 27.8192 42.4934 28.3121ZM40.2837 28.3121C40.275 27.9645 40.165 27.627 39.9675 27.3416C39.7699 27.0563 39.4935 26.8354 39.1723 26.7064C38.8512 26.5774 38.4994 26.5459 38.1607 26.616C37.822 26.6859 37.5111 26.8543 37.2666 27.1002C37.022 27.3461 36.8546 27.6586 36.785 27.9993C36.7154 28.3399 36.7467 28.6936 36.8749 29.0165C37.0032 29.3394 37.2229 29.6174 37.5067 29.816C37.7906 30.0146 38.1261 30.1252 38.4718 30.134C38.7131 30.1495 38.9548 30.1128 39.1808 30.0265C39.4068 29.9401 39.6118 29.8062 39.7821 29.6336C39.9523 29.461 40.0838 29.2538 40.1678 29.0259C40.2518 28.7979 40.2863 28.5546 40.269 28.3121H40.2837Z" fill="white"></path><path d="M49.3727 29.8082C49.3727 31.5265 47.8996 32.2596 46.2791 32.2596C45.6318 32.3173 44.9821 32.1788 44.4137 31.862C43.8454 31.5452 43.3843 31.0646 43.0898 30.4821L45.0196 29.3786C45.098 29.648 45.2657 29.8824 45.4947 30.0427C45.7239 30.203 46.0006 30.2797 46.2791 30.2599C46.8168 30.2599 47.082 30.0896 47.082 29.7934C47.082 28.9712 43.3992 29.4083 43.3992 26.8308C43.3992 25.2014 44.7692 24.3793 46.3454 24.3793C46.9271 24.3616 47.5029 24.5005 48.0131 24.7818C48.5234 25.0631 48.9495 25.4765 49.2475 25.9791L47.3103 27.0012C47.2248 26.8056 47.0845 26.6392 46.9067 26.5221C46.7289 26.4051 46.5211 26.3425 46.3086 26.342C45.9256 26.342 45.6899 26.4901 45.6899 26.7642C45.7194 27.6159 49.3727 27.0456 49.3727 29.8082Z" fill="white"></path><path d="M57.5043 24.5793V32.0449H55.2946V31.3488C55.0376 31.6581 54.7114 31.9019 54.3427 32.0602C53.974 32.2186 53.5733 32.2869 53.1733 32.2597C51.7002 32.2597 50.3965 31.1858 50.3965 29.1639V24.5793H52.6061V28.838C52.5867 29.0195 52.6078 29.203 52.6677 29.3753C52.7276 29.5477 52.8249 29.7044 52.9525 29.8342C53.0802 29.964 53.235 30.0635 53.4056 30.1256C53.5763 30.1878 53.7587 30.2109 53.9393 30.1934C54.7496 30.1934 55.3167 29.7193 55.3167 28.6603V24.5793H57.5043Z" fill="white"></path><path d="M70.2766 27.4677V32.0448H68.0669V27.6603C68.0669 26.9197 67.706 26.4308 66.9989 26.4308C66.2918 26.4308 65.8351 26.9567 65.8351 27.838V32.0448H63.6255V27.6603C63.6255 26.9197 63.2719 26.4308 62.5574 26.4308C61.843 26.4308 61.4011 26.9567 61.4011 27.838V32.0448H59.1914V24.5793H61.4011V25.2681C61.632 24.9638 61.9349 24.7225 62.2822 24.566C62.6296 24.4095 63.0103 24.3427 63.3898 24.3719C63.7709 24.3533 64.1503 24.4343 64.491 24.6068C64.8318 24.7794 65.1223 25.0379 65.3343 25.3569C65.5808 25.0234 65.9074 24.758 66.2835 24.5858C66.6596 24.4136 67.073 24.3399 67.485 24.3719C69.1644 24.3719 70.2766 25.6013 70.2766 27.4677Z" fill="white"></path><path d="M72.1626 24.535C73.0738 24.535 73.8125 23.7921 73.8125 22.8759C73.8125 21.9597 73.0738 21.2169 72.1626 21.2169C71.2514 21.2169 70.5127 21.9597 70.5127 22.8759C70.5127 23.7921 71.2514 24.535 72.1626 24.535Z" fill="white"></path><path d="M25.0224 15.4993C29.2896 15.4993 32.7489 12.0208 32.7489 7.73001C32.7489 3.43921 29.2896 -0.0391846 25.0224 -0.0391846C20.7552 -0.0391846 17.2959 3.43921 17.2959 7.73001C17.2959 12.0208 20.7552 15.4993 25.0224 15.4993Z" fill="white"></path><path d="M42.2949 15.4993C46.5621 15.4993 50.0213 12.0208 50.0213 7.73001C50.0213 3.43921 46.5621 -0.0391846 42.2949 -0.0391846C38.0277 -0.0391846 34.5684 3.43921 34.5684 7.73001C34.5684 12.0208 38.0277 15.4993 42.2949 15.4993Z" fill="white"></path><path d="M15.4768 -0.0391846H0.03125V15.4918H15.4768V-0.0391846Z" fill="white"></path></g><defs><clipPath id="clip0_2408_1760"><rect width="74" height="36" fill="white"></rect></clipPath></defs></svg>