<svg xmlns="http://www.w3.org/2000/svg" width="115" height="40" viewBox="0 0 115 40" fill="none"><path fill-rule="evenodd" clip-rule="evenodd" d="M23.0001 12.5168C21.5201 11.5279 19.78 11 18 11V2C21.56 2 25.0402 3.05568 28.0003 5.03355C30.9604 7.01141 33.2674 9.82263 34.6298 13.1117C35.9922 16.4007 36.3487 20.02 35.6541 23.5116C34.9596 27.0033 33.2453 30.2106 30.7279 32.7279C28.2106 35.2453 25.0033 36.9596 21.5116 37.6541C18.02 38.3487 14.4007 37.9922 11.1117 36.6298C7.82262 35.2674 5.01141 32.9604 3.03355 30.0003C1.05568 27.0402 0 23.56 0 20H9C9 21.78 9.52785 23.5201 10.5168 25.0001C11.5057 26.4802 12.9113 27.6337 14.5559 28.3149C16.2004 28.9961 18.01 29.1743 19.7558 28.827C21.5016 28.4798 23.1053 27.6226 24.364 26.364C25.6226 25.1053 26.4798 23.5016 26.827 21.7558C27.1743 20.01 26.9961 18.2004 26.3149 16.5559C25.6337 14.9113 24.4802 13.5057 23.0001 12.5168Z" fill="white"></path><path fill-rule="evenodd" clip-rule="evenodd" d="M9.99999 0.499395C9.99999 1.81261 9.74134 3.11297 9.23879 4.32623C8.73624 5.53948 7.99965 6.64187 7.07106 7.57046C6.14248 8.49905 5.04009 9.23564 3.82683 9.73819C2.61357 10.2407 1.31321 10.4994 4.3711e-07 10.4994L0 20.4994C2.62643 20.4994 5.22715 19.9821 7.65367 18.977C10.0802 17.9719 12.285 16.4987 14.1421 14.6415C15.9993 12.7844 17.4725 10.5796 18.4776 8.15306C19.4827 5.72654 20 3.12582 20 0.49939L9.99999 0.499395Z" fill="white"></path><path d="M47.1562 30.3642V7.9751H52.1352V25.9879H62.0613V30.3642H47.1562Z" fill="white"></path><path fill-rule="evenodd" clip-rule="evenodd" d="M71.0273 30.713C69.4417 30.713 68.0041 30.3642 66.7144 29.6665C65.4459 28.9477 64.4417 27.9752 63.7017 26.7489C62.9618 25.5227 62.5918 24.1485 62.5918 22.6263C62.5918 21.1041 62.9618 19.7405 63.7017 18.5354C64.4417 17.3303 65.4459 16.3789 66.7144 15.6813C67.9829 14.9624 69.4206 14.603 71.0273 14.603C72.6341 14.603 74.0717 14.9519 75.3402 15.6495C76.6087 16.3472 77.613 17.3092 78.3529 18.5354C79.0929 19.7405 79.4629 21.1041 79.4629 22.6263C79.4629 24.1485 79.0929 25.5227 78.3529 26.7489C77.613 27.9752 76.6087 28.9477 75.3402 29.6665C74.0717 30.3642 72.6341 30.713 71.0273 30.713ZM71.0273 26.305C71.725 26.305 72.3381 26.157 72.8667 25.861C73.3952 25.5439 73.7969 25.1105 74.0717 24.5608C74.3677 23.99 74.5157 23.3451 74.5157 22.6263C74.5157 21.9075 74.3677 21.2838 74.0717 20.7553C73.7757 20.2056 73.3635 19.7828 72.8349 19.4868C72.3275 19.1696 71.725 19.0111 71.0273 19.0111C70.3508 19.0111 69.7483 19.1696 69.2197 19.4868C68.6912 19.7828 68.2789 20.2056 67.9829 20.7553C67.6869 21.305 67.539 21.9392 67.539 22.658C67.539 23.3557 67.6869 23.99 67.9829 24.5608C68.2789 25.1105 68.6912 25.5439 69.2197 25.861C69.7483 26.157 70.3508 26.305 71.0273 26.305Z" fill="white"></path><path fill-rule="evenodd" clip-rule="evenodd" d="M83.3056 36.3897C84.5952 36.9816 86.0857 37.2776 87.7771 37.2776C89.4261 37.2776 90.8955 36.9499 92.1851 36.2945C93.4748 35.6391 94.4895 34.7301 95.2295 33.5673C95.9694 32.4045 96.3399 31.0303 96.3399 29.4446V14.952H91.5825V15.9875C91.2287 15.6897 90.8269 15.4397 90.3775 15.2374C89.5529 14.8357 88.6121 14.6348 87.5551 14.6348C86.1386 14.6348 84.8806 14.9731 83.7813 15.6496C82.6818 16.305 81.8151 17.2141 81.1808 18.3769C80.5465 19.5186 80.2295 20.8082 80.2295 22.2459C80.2295 23.6624 80.5465 24.952 81.1808 26.1148C81.8151 27.2776 82.6818 28.1973 83.7813 28.8738C84.8806 29.5503 86.1386 29.8886 87.5551 29.8886C88.591 29.8886 89.5318 29.6878 90.3775 29.2861C90.7871 29.0915 91.1571 28.8622 91.4874 28.5981V29.5715C91.4874 30.6497 91.1386 31.4848 90.4409 32.0768C89.7644 32.6688 88.8236 32.9647 87.6185 32.9647C86.646 32.9647 85.8109 32.7956 85.1132 32.4573C84.4367 32.1191 83.8235 31.6222 83.2738 30.9668L80.2929 33.9478C81.0328 35.0049 82.0371 35.8189 83.3056 36.3897ZM90.2189 25.1317C89.7326 25.4277 89.1513 25.5757 88.4747 25.5757C87.7982 25.5757 87.2062 25.4277 86.6988 25.1317C86.2125 24.8357 85.832 24.434 85.5572 23.9266C85.2823 23.3981 85.1449 22.8378 85.1449 22.2459C85.1449 21.6116 85.2823 21.0408 85.5572 20.5334C85.832 20.026 86.2231 19.6243 86.7305 19.3283C87.2379 19.0323 87.8193 18.8843 88.4747 18.8843C89.1513 18.8843 89.7326 19.0323 90.2189 19.3283C90.7263 19.6243 91.1068 20.026 91.3606 20.5334C91.6354 21.0408 91.7728 21.6116 91.7728 22.2459C91.7728 22.8801 91.6354 23.4509 91.3606 23.9583C91.1068 24.4446 90.7263 24.8357 90.2189 25.1317Z" fill="white"></path><path fill-rule="evenodd" clip-rule="evenodd" d="M106.551 30.713C104.965 30.713 103.527 30.3642 102.238 29.6665C100.969 28.9477 99.9652 27.9752 99.2252 26.7489C98.4852 25.5227 98.1152 24.1485 98.1152 22.6263C98.1152 21.1041 98.4852 19.7405 99.2252 18.5354C99.9652 17.3303 100.969 16.3789 102.238 15.6813C103.506 14.9624 104.944 14.603 106.551 14.603C108.157 14.603 109.595 14.9519 110.863 15.6495C112.132 16.3472 113.136 17.3092 113.876 18.5354C114.616 19.7405 114.986 21.1041 114.986 22.6263C114.986 24.1485 114.616 25.5227 113.876 26.7489C113.136 27.9752 112.132 28.9477 110.863 29.6665C109.595 30.3642 108.157 30.713 106.551 30.713ZM106.551 26.305C107.248 26.305 107.861 26.157 108.39 25.861C108.918 25.5439 109.32 25.1105 109.595 24.5608C109.891 23.99 110.039 23.3451 110.039 22.6263C110.039 21.9075 109.891 21.2838 109.595 20.7553C109.299 20.2056 108.887 19.7828 108.358 19.4868C107.851 19.1696 107.248 19.0111 106.551 19.0111C105.874 19.0111 105.271 19.1696 104.743 19.4868C104.214 19.7828 103.802 20.2056 103.506 20.7553C103.21 21.305 103.062 21.9392 103.062 22.658C103.062 23.3557 103.21 23.99 103.506 24.5608C103.802 25.1105 104.214 25.5439 104.743 25.861C105.271 26.157 105.874 26.305 106.551 26.305Z" fill="white"></path></svg>