<svg xmlns="http://www.w3.org/2000/svg" width="99" height="34" viewBox="0 0 99 34" fill="none"><path d="M1 25L1 9L9.05553 13.4445V20.6L15.5 24.2L21.9444 20.6V13.4445L30 9V25L15.5 33L1 25Z" fill="white"></path><path fill-rule="evenodd" clip-rule="evenodd" d="M5.02778 11.2222L1 9L15.5 1L30 9L25.9722 11.2222V23L15.5 29L5.02777 23L5.02778 11.2222ZM25.5359 11.463L21.9444 13.4444V13.4L15.5 9.79997L9.05553 13.4V13.4444L5.46411 11.463V22.7538L15.5 28.5039L25.5359 22.7538V11.463Z" fill="white"></path><path d="M40.4058 25.0516V13.869H43.2465V25.0516H40.4058ZM41.8261 12.5614C41.3151 12.5614 40.8792 12.3961 40.5185 12.0654C40.1728 11.7347 40 11.2988 40 10.7578C40 10.2167 40.1728 9.7808 40.5185 9.4501C40.8792 9.1195 41.3151 8.9541 41.8261 8.9541C42.3522 8.9541 42.7881 9.1195 43.1338 9.4501C43.4795 9.7808 43.6523 10.2167 43.6523 10.7578C43.6523 11.2988 43.4795 11.7347 43.1338 12.0654C42.7881 12.3961 42.3522 12.5614 41.8261 12.5614Z" fill="white"></path><path d="M45.3799 29.5608V13.8691H48.1757V15.2219H48.5817C48.8367 14.786 49.2347 14.4027 49.7767 14.072C50.3177 13.7263 51.0917 13.5535 52.0987 13.5535C53.0007 13.5535 53.8347 13.7789 54.6007 14.2299C55.3677 14.6657 55.9837 15.312 56.4497 16.1688C56.9157 17.0255 57.1487 18.0626 57.1487 19.28V19.6408C57.1487 20.8582 56.9157 21.8953 56.4497 22.752C55.9837 23.6088 55.3677 24.2626 54.6007 24.7135C53.8347 25.1494 53.0007 25.3673 52.0987 25.3673C51.4217 25.3673 50.8507 25.2846 50.3847 25.1193C49.9337 24.969 49.5657 24.7736 49.2807 24.5331C49.0097 24.2776 48.7917 24.0221 48.6267 23.7666H48.2207V29.5608H45.3799ZM51.2417 22.8873C52.1287 22.8873 52.8577 22.6092 53.4287 22.0531C54.0147 21.482 54.3077 20.6553 54.3077 19.5731V19.3477C54.3077 18.2655 54.0147 17.4463 53.4287 16.8902C52.8427 16.3191 52.1137 16.0335 51.2417 16.0335C50.3697 16.0335 49.6407 16.3191 49.0547 16.8902C48.4687 17.4463 48.1757 18.2655 48.1757 19.3477V19.5731C48.1757 20.6553 48.4687 21.482 49.0547 22.0531C49.6407 22.6092 50.3697 22.8873 51.2417 22.8873Z" fill="white"></path><path d="M63.3864 25.3673C61.9284 25.3673 60.7334 25.0517 59.8014 24.4204C58.8704 23.7891 58.3064 22.8873 58.1104 21.7149L60.7264 21.0386C60.8314 21.5646 61.0044 21.978 61.2444 22.2786C61.5004 22.5792 61.8084 22.7971 62.1694 22.9324C62.5444 23.0526 62.9504 23.1128 63.3864 23.1128C64.0474 23.1128 64.5364 23 64.8524 22.7746C65.1674 22.5341 65.3254 22.241 65.3254 21.8953C65.3254 21.5496 65.1754 21.2866 64.8744 21.1062C64.5744 20.9108 64.0934 20.753 63.4314 20.6328L62.8004 20.52C62.0184 20.3697 61.3044 20.1668 60.6584 19.9113C60.0124 19.6408 59.4934 19.2725 59.1024 18.8066C58.7124 18.3406 58.5164 17.7394 58.5164 17.0029C58.5164 15.8907 58.9224 15.0415 59.7344 14.4553C60.5454 13.8541 61.6134 13.5535 62.9354 13.5535C64.1834 13.5535 65.2204 13.8316 66.0464 14.3877C66.8734 14.9438 67.4144 15.6728 67.6704 16.5746L65.0324 17.3862C64.9124 16.8151 64.6644 16.4092 64.2884 16.1688C63.9274 15.9283 63.4764 15.808 62.9354 15.808C62.3944 15.808 61.9814 15.9057 61.6954 16.1011C61.4104 16.2815 61.2674 16.537 61.2674 16.8677C61.2674 17.2284 61.4174 17.4989 61.7184 17.6793C62.0184 17.8446 62.4244 17.9724 62.9354 18.0626L63.5664 18.1753C64.4084 18.3256 65.1674 18.5285 65.8444 18.784C66.5354 19.0245 67.0764 19.3777 67.4674 19.8437C67.8734 20.2946 68.0764 20.9108 68.0764 21.6924C68.0764 22.8648 67.6474 23.7741 66.7904 24.4204C65.9494 25.0517 64.8144 25.3673 63.3864 25.3673Z" fill="white"></path><path d="M73.8119 25.2319C72.9409 25.2319 72.1739 25.0365 71.5129 24.6458C70.8669 24.2399 70.3629 23.6838 70.0019 22.9774C69.6419 22.271 69.4609 21.4593 69.4609 20.5425V13.869H72.3019V20.317C72.3019 21.1587 72.5049 21.79 72.9109 22.2108C73.3309 22.6317 73.9249 22.8421 74.6919 22.8421C75.5629 22.8421 76.2399 22.5565 76.7209 21.9854C77.2019 21.3992 77.4419 20.5876 77.4419 19.5505V13.869H80.2829V25.0516H77.4869V23.5861H77.0819C76.9009 23.9619 76.5629 24.3301 76.0669 24.6908C75.5709 25.0516 74.8189 25.2319 73.8119 25.2319Z" fill="white"></path><path d="M82.4297 25.0516V13.869H85.2247V15.0865H85.6307C85.8257 14.7107 86.1497 14.3876 86.5997 14.117C87.0507 13.8315 87.6447 13.6887 88.3817 13.6887C89.1777 13.6887 89.8167 13.8465 90.2977 14.1621C90.7787 14.4627 91.1467 14.861 91.4027 15.357H91.8077C92.0637 14.8761 92.4247 14.4778 92.8907 14.1621C93.3567 13.8465 94.0177 13.6887 94.8747 13.6887C95.5657 13.6887 96.1897 13.839 96.7457 14.1396C97.3167 14.4251 97.7677 14.8685 98.0987 15.4698C98.4437 16.0559 98.6167 16.7999 98.6167 17.7018V25.0516H95.7757V17.9047C95.7757 17.2884 95.6187 16.83 95.3027 16.5294C94.9867 16.2138 94.5437 16.0559 93.9727 16.0559C93.3267 16.0559 92.8227 16.2664 92.4617 16.6872C92.1167 17.093 91.9437 17.6792 91.9437 18.4458V25.0516H89.1027V17.9047C89.1027 17.2884 88.9447 16.83 88.6297 16.5294C88.3137 16.2138 87.8707 16.0559 87.2987 16.0559C86.6527 16.0559 86.1497 16.2664 85.7887 16.6872C85.4427 17.093 85.2697 17.6792 85.2697 18.4458V25.0516H82.4297Z" fill="white"></path></svg>