<svg xmlns="http://www.w3.org/2000/svg" width="169" height="40" viewBox="0 0 169 40" fill="none"><path d="M0 18.4371V13.5629L20 0V7.89404L8 15.5762V16.4238L20 24.106V32L0 18.4371Z" fill="url(#paint0_linear_2402_1625)"></path><path d="M40 21.5629V26.4371L20 40V32.106L32 24.4238V23.5762L20 15.894V8L40 21.5629Z" fill="url(#paint1_linear_2402_1625)"></path><path d="M50.936 30V27H51.968C52.736 27 53.344 26.784 53.792 26.352C54.256 25.904 54.488 25.312 54.488 24.576V12.12H57.776V24.456C57.776 25.56 57.536 26.528 57.056 27.36C56.592 28.192 55.92 28.84 55.04 29.304C54.176 29.768 53.152 30 51.968 30H50.936ZM67.2699 30.288C65.9899 30.288 64.8219 29.992 63.7659 29.4C62.7259 28.808 61.8939 28 61.2699 26.976C60.6619 25.952 60.3579 24.784 60.3579 23.472C60.3579 22.16 60.6619 20.992 61.2699 19.968C61.8939 18.944 62.7259 18.136 63.7659 17.544C64.8059 16.952 65.9739 16.656 67.2699 16.656C68.5499 16.656 69.7099 16.952 70.7499 17.544C71.7899 18.136 72.6139 18.944 73.2219 19.968C73.8459 20.976 74.1579 22.144 74.1579 23.472C74.1579 24.784 73.8459 25.952 73.2219 26.976C72.5979 28 71.7659 28.808 70.7259 29.4C69.6859 29.992 68.5339 30.288 67.2699 30.288ZM67.2699 27.408C67.9739 27.408 68.5899 27.24 69.1179 26.904C69.6619 26.568 70.0859 26.104 70.3899 25.512C70.7099 24.904 70.8699 24.224 70.8699 23.472C70.8699 22.704 70.7099 22.032 70.3899 21.456C70.0859 20.864 69.6619 20.4 69.1179 20.064C68.5899 19.712 67.9739 19.536 67.2699 19.536C66.5499 19.536 65.9179 19.712 65.3739 20.064C64.8299 20.4 64.3979 20.864 64.0779 21.456C63.7739 22.032 63.6219 22.704 63.6219 23.472C63.6219 24.224 63.7739 24.904 64.0779 25.512C64.3979 26.104 64.8299 26.568 65.3739 26.904C65.9179 27.24 66.5499 27.408 67.2699 27.408ZM76.5421 30V11.832H79.6861V19.512L79.2541 19.056C79.5581 18.272 80.0541 17.68 80.7421 17.28C81.4461 16.864 82.2621 16.656 83.1901 16.656C84.1501 16.656 84.9981 16.864 85.7341 17.28C86.4861 17.696 87.0701 18.28 87.4861 19.032C87.9021 19.768 88.1101 20.624 88.1101 21.6V30H84.9661V22.344C84.9661 21.768 84.8541 21.272 84.6301 20.856C84.4061 20.44 84.0941 20.12 83.6941 19.896C83.3101 19.656 82.8541 19.536 82.3261 19.536C81.8141 19.536 81.3581 19.656 80.9581 19.896C80.5581 20.12 80.2461 20.44 80.0221 20.856C79.7981 21.272 79.6861 21.768 79.6861 22.344V30H76.5421ZM90.7687 30V16.944H93.7207V19.512L93.4807 19.056C93.7847 18.272 94.2807 17.68 94.9687 17.28C95.6727 16.864 96.4887 16.656 97.4167 16.656C98.3767 16.656 99.2247 16.864 99.9607 17.28C100.713 17.696 101.297 18.28 101.713 19.032C102.129 19.768 102.337 20.624 102.337 21.6V30H99.1927V22.344C99.1927 21.768 99.0807 21.272 98.8567 20.856C98.6327 20.44 98.3207 20.12 97.9207 19.896C97.5367 19.656 97.0807 19.536 96.5527 19.536C96.0407 19.536 95.5847 19.656 95.1847 19.896C94.7847 20.12 94.4727 20.44 94.2487 20.856C94.0247 21.272 93.9127 21.768 93.9127 22.344V30H90.7687ZM109.963 30.288C108.571 30.288 107.355 29.96 106.315 29.304C105.291 28.632 104.587 27.728 104.203 26.592L106.555 25.464C106.891 26.2 107.355 26.776 107.947 27.192C108.555 27.608 109.227 27.816 109.963 27.816C110.539 27.816 110.995 27.688 111.331 27.432C111.667 27.176 111.835 26.84 111.835 26.424C111.835 26.168 111.763 25.96 111.619 25.8C111.491 25.624 111.307 25.48 111.067 25.368C110.843 25.24 110.595 25.136 110.323 25.056L108.187 24.456C107.083 24.136 106.243 23.648 105.667 22.992C105.107 22.336 104.827 21.56 104.827 20.664C104.827 19.864 105.027 19.168 105.427 18.576C105.843 17.968 106.411 17.496 107.131 17.16C107.867 16.824 108.707 16.656 109.651 16.656C110.883 16.656 111.971 16.952 112.915 17.544C113.859 18.136 114.531 18.968 114.931 20.04L112.531 21.168C112.307 20.576 111.931 20.104 111.403 19.752C110.875 19.4 110.283 19.224 109.627 19.224C109.099 19.224 108.683 19.344 108.379 19.584C108.075 19.824 107.923 20.136 107.923 20.52C107.923 20.76 107.987 20.968 108.115 21.144C108.243 21.32 108.419 21.464 108.643 21.576C108.883 21.688 109.155 21.792 109.459 21.888L111.547 22.512C112.619 22.832 113.443 23.312 114.019 23.952C114.611 24.592 114.907 25.376 114.907 26.304C114.907 27.088 114.699 27.784 114.283 28.392C113.867 28.984 113.291 29.448 112.555 29.784C111.819 30.12 110.955 30.288 109.963 30.288ZM117.323 30V16.944H120.275V19.968L119.939 19.464C120.179 18.52 120.659 17.816 121.379 17.352C122.099 16.888 122.947 16.656 123.923 16.656C124.995 16.656 125.939 16.936 126.755 17.496C127.571 18.056 128.099 18.792 128.339 19.704L127.451 19.776C127.851 18.736 128.451 17.96 129.251 17.448C130.051 16.92 130.971 16.656 132.011 16.656C132.939 16.656 133.763 16.864 134.483 17.28C135.219 17.696 135.795 18.28 136.211 19.032C136.627 19.768 136.835 20.624 136.835 21.6V30H133.691V22.344C133.691 21.768 133.587 21.272 133.379 20.856C133.171 20.44 132.883 20.12 132.515 19.896C132.147 19.656 131.699 19.536 131.171 19.536C130.675 19.536 130.235 19.656 129.851 19.896C129.467 20.12 129.171 20.44 128.963 20.856C128.755 21.272 128.651 21.768 128.651 22.344V30H125.507V22.344C125.507 21.768 125.403 21.272 125.195 20.856C124.987 20.44 124.691 20.12 124.307 19.896C123.939 19.656 123.499 19.536 122.987 19.536C122.491 19.536 122.051 19.656 121.667 19.896C121.283 20.12 120.987 20.44 120.779 20.856C120.571 21.272 120.467 21.768 120.467 22.344V30H117.323ZM139.495 30V16.944H142.639V30H139.495ZM139.495 15.48V12.12H142.639V15.48H139.495ZM151.494 30.144C150.022 30.144 148.878 29.744 148.062 28.944C147.262 28.128 146.862 26.984 146.862 25.512V19.752H144.606V16.944H144.846C145.486 16.944 145.982 16.776 146.334 16.44C146.686 16.104 146.862 15.616 146.862 14.976V13.968H150.006V16.944H153.006V19.752H150.006V25.344C150.006 25.776 150.078 26.144 150.222 26.448C150.382 26.752 150.622 26.984 150.942 27.144C151.278 27.304 151.702 27.384 152.214 27.384C152.326 27.384 152.454 27.376 152.598 27.36C152.758 27.344 152.91 27.328 153.054 27.312V30C152.83 30.032 152.574 30.064 152.286 30.096C151.998 30.128 151.734 30.144 151.494 30.144ZM155.456 30V11.832H158.6V19.512L158.168 19.056C158.472 18.272 158.968 17.68 159.656 17.28C160.36 16.864 161.176 16.656 162.104 16.656C163.064 16.656 163.912 16.864 164.648 17.28C165.4 17.696 165.984 18.28 166.4 19.032C166.816 19.768 167.024 20.624 167.024 21.6V30H163.88V22.344C163.88 21.768 163.768 21.272 163.544 20.856C163.32 20.44 163.008 20.12 162.608 19.896C162.224 19.656 161.768 19.536 161.24 19.536C160.728 19.536 160.272 19.656 159.872 19.896C159.472 20.12 159.16 20.44 158.936 20.856C158.712 21.272 158.6 21.768 158.6 22.344V30H155.456Z" fill="white"></path><defs><linearGradient id="paint0_linear_2402_1625" x1="10" y1="0" x2="10" y2="32" gradientUnits="userSpaceOnUse"><stop stop-color="#8750FC"></stop><stop offset="1" stop-color="#8750FC" stop-opacity="0"></stop></linearGradient><linearGradient id="paint1_linear_2402_1625" x1="30" y1="40" x2="30" y2="8" gradientUnits="userSpaceOnUse"><stop stop-color="#8750FC"></stop><stop offset="1" stop-color="#8750FC" stop-opacity="0"></stop></linearGradient></defs></svg>